<?xml version="1.0" encoding="iso-8859-1"?>
<!-- Generator: Adobe Illustrator 18.1.1, SVG Export Plug-In . SVG Version: 6.00 Build 0)  -->
<svg version="1.1" id="Capa_1" xmlns="http://www.w3.org/2000/svg" xmlns:xlink="http://www.w3.org/1999/xlink" x="0px" y="0px"
	 viewBox="0 0 17.706 17.706" style="enable-background:new 0 0 17.706 17.706;" xml:space="preserve">
<g>
	<path style="fill:#030104;" d="M14.788,5.235c-0.356-0.442-1.144-1.077-1.826-1.171c-0.009,0.017-0.018,0.034-0.026,0.05
		c0.067,0.051,0.349,0.314,0.416,0.366c0,0.008,0,0.016,0,0.025c-1.587,0.447-0.569,1.471-1.108,2.747
		C11.853,8.174,9.803,8.72,8.868,7.907C8.801,7.596,8.733,7.285,8.666,6.974C8.545,6.607,8.329,6.23,8.112,5.942
		c-0.258-0.343-0.739-0.825-1.135-1.01C6.608,4.882,6.05,5.219,5.68,5.168C5.053,4.974,4.472,4.697,3.966,4.362
		C3.614,4.129,3.027,3.327,2.631,3.329C2.235,3.332,2.47,3.452,2.404,3.581c0.059,0.714,0.561,1.006,0.932,1.411
		C2.648,4.788,1.812,4.108,1.725,4.034C1.637,3.961,1.623,4.052,1.573,4.06C1.341,4.987,2.147,5.545,2.531,6.05
		C2.295,5.916,1.708,5.582,1.296,5.698c0,0-0.05,0.016-0.076,0.025C1.104,6.387,1.671,6.591,1.926,6.958
		c-0.118-0.059-0.293-0.135-0.403-0.05c-0.025,0.017-0.05,0.033-0.076,0.05c0.081,0.54,0.612,0.833,0.982,1.108
		C2.531,8.141,2.571,8.34,2.681,8.419C3.146,8.753,3.709,9.07,4.37,9.226C4.597,9.234,4.823,9.243,5.05,9.25l0.743-0.337
		C5.486,8.999,5.272,9.54,5.189,9.846C4.089,9.605,0.416,8.876,0,9.869c0,0.025,0,0.05,0,0.075c0.174,0.254,0.779,0.099,1.108,0.076
		c0,0.009,0,0.016,0,0.025c-0.21,0.033-0.42,0.066-0.63,0.1c0.079,0.389,0.757,0.564,1.209,0.58c0,0.008,0,0.018,0,0.025
		c-0.143,0.033-0.286,0.068-0.429,0.102c0,0.033,0,0.066,0,0.1c0.376,0.109,1.021,0.381,1.487,0.277
		c0.823-0.182,1.839-0.168,2.896-0.074c0.009,0.01,0.017,0.018,0.025,0.025c0,0.01,0,0.018,0,0.025
		c-0.647,0.488-1.75,0.931-2.435,1.41c-0.176,0.152-0.353,0.304-0.529,0.455c-0.256,0.113-0.434-0.112-0.706-0.051
		c-0.085,0.043-0.103,0.074-0.151,0.15c0.017,0.059,0.033,0.119,0.05,0.177c0.124,0.078,0.286,0.125,0.404,0.075
		c-0.067,0.232-0.229,0.287-0.454,0.354c-0.067,0.094-0.096,0.104-0.101,0.277c0.359,0.281,1.076,0.316,1.285-0.201
		c-0.301-0.803,2.551-1.711,3.039-2.344c0.202,0.066,0.403,0.135,0.604,0.202c-0.706,0.503-1.854,1.007-2.561,1.511
		c-0.263,0.072-0.386-0.086-0.63-0.101c-0.08,0.089-0.123,0.1-0.152,0.252c0.089,0.157,0.168,0.212,0.429,0.202
		c0,0.025,0,0.049,0,0.074c-0.145,0.184-0.42,0.186-0.529,0.404c0,0.049,0,0.102,0,0.15c0.352,0.195,1.003,0.307,1.234-0.102
		c0.117-0.204-0.082-0.367,0.025-0.553c0.107-0.186,2.59-1.641,2.837-1.738c0.215-0.084,0.997,0.01,1.311-0.076
		c1.148-0.311,2.53-0.889,2.538-2.321c0.333-0.083,0.641-0.059,0.907-0.177c1.043-0.461,0.593-2.191,1.191-3.095
		c0.962,0.142,4.066-0.159,4.434-0.403c0-0.025,0-0.05,0-0.076C17.006,5.291,15.799,5.104,14.788,5.235z"/>
</g>
<g>
</g>
<g>
</g>
<g>
</g>
<g>
</g>
<g>
</g>
<g>
</g>
<g>
</g>
<g>
</g>
<g>
</g>
<g>
</g>
<g>
</g>
<g>
</g>
<g>
</g>
<g>
</g>
<g>
</g>
</svg>
